<svg class="logo-de-tijd" xmlns="http://www.w3.org/2000/svg" width="44" height="38" viewBox="0 0 44 38"><title>De Tijd</title> <path fill="white" d="M7.2 16H.4v-.6c.6 0 1 0 1.2-.3.4-.3.4-.6.4-6.9 0-6.3 0-6.6-.4-7L.4 1V.4h6.8c5.5 0 8.2 2.7 8.2 7.3 0 5.4-3 8.3-8.2 8.3zm0-14.6H5.7V13c0 2 .1 2 1.5 2 2.4 0 4.2-2 4.1-7.3 0-5.1-2.1-6.4-4-6.4z"></path> <path fill="white" d="M25.6 12.7l-.1 3.3H14.9v-.6c.6 0 1 0 1.2-.3.4-.3.4-.6.4-6.9 0-6.3 0-6.6-.4-7L14.9 1V.4h10.6l.1 3.3h-.7v-.3c0-1.2-.9-2-2.2-2h-2.5v6h1.7c1.7 0 2.2-.4 2.3-1.9h.7v4.8h-.7c0-1.5-.6-1.9-2.3-1.9h-1.7V13c0 2 .1 2 1.5 2h1c1.2 0 2-.8 2.2-2v-.3h.7M13 20h-.6v-.4c-.2-.8-.6-1.8-2.3-1.8H8.5v10.1c0 3.6.3 4 2 4v.5H2.7v-.6c1.7 0 2.1-.3 2.1-3.9V17.8H3.1c-1.6 0-2 1-2.2 1.8v.4H.3v-3.3H13zM20.3 32.4h-7v-.6c.7 0 1-.1 1.3-.3.3-.4.4-.6.4-7 0-6.2 0-6.5-.4-6.9-.2-.2-.6-.2-1.3-.2v-.7h7v.7c-.7 0-1 0-1.2.2-.4.4-.5.6-.5 7s0 6.5.4 6.9c.2.2.6.3 1.3.3z"></path> <path fill="white" d="M27.6 17.4c-.7 0-1 0-1.2.2-.4.4-.4.6-.4 7v7.3c0 4.8-2.3 6-5 6h-1.2v-.5c2.2 0 2.4-1.7 2.5-5.1v-7.7c0-6.3 0-6.6-.4-7l-1.2-.2v-.6h6.9v.6M35 32.4h-7v-.6c.8 0 1.1-.1 1.3-.3.4-.4.4-.6.4-7 0-6.2 0-6.5-.4-6.9-.2-.2-.5-.2-1.2-.2v-.7H35c5.4 0 8.2 2.8 8.2 7.3 0 5.5-3.2 8.4-8.3 8.4zm0-14.7h-1.6v11.7c0 2 .1 2 1.6 2 2.3 0 4.2-1.9 4-7.2 0-5.2-2-6.5-4-6.5z"></path></svg>