<svg xmlns="http://www.w3.org/2000/svg" width="32" height="32" class="icon"><path fill="white" d="M0.620689655,15.2068966 C0.620689655,6.80835908 7.42904873,0 15.8275862,0 C24.2261237,0 31.0344828,6.80835908 31.0344828,15.2068966 C31.0344828,23.605434 24.2261237,30.4137931 15.8275862,30.4137931 C7.42904873,30.4137931 0.620689655,23.605434 0.620689655,15.2068966 Z M15.9007031,7.4 C13.8638069,7.4 13.6081793,7.40890634 12.8081709,7.44531297 C12.0097251,7.48187585 11.4647194,7.60828342 10.9878395,7.7937541 C10.4945531,7.9853186 10.0761112,8.24157127 9.65923187,8.65860686 C9.24204002,9.0754862 8.98578735,9.49392806 8.79359785,9.9870582 C8.60765841,10.4640944 8.48109459,11.0092563 8.44515672,11.8073897 C8.4093751,12.607398 8.4,12.8631819 8.4,14.9000781 C8.4,16.9369743 8.40906259,17.1918207 8.44531297,17.9918291 C8.4820321,18.7902749 8.60843967,19.3352806 8.7937541,19.8121605 C8.98547485,20.3054469 9.24172752,20.7238888 9.65876311,21.1407681 C10.0754862,21.55796 10.4939281,21.8148377 10.9869019,22.0064022 C11.4640944,22.1918728 12.0092563,22.3182804 12.8075459,22.3548433 C13.6075542,22.3912499 13.8630257,22.4001563 15.8997656,22.4001563 C17.9368181,22.4001563 18.1916645,22.3912499 18.9916728,22.3548433 C19.7901186,22.3182804 20.3357493,22.1918728 20.8129418,22.0064022 C21.3060719,21.8148377 21.7238888,21.55796 22.1406119,21.1407681 C22.5578037,20.7238888 22.8140564,20.3054469 23.0062459,19.8123168 C23.1906228,19.3352806 23.3171866,18.7901186 23.354687,17.9919853 C23.3906249,17.191977 23.4,16.9369743 23.4,14.9000781 C23.4,12.8631819 23.3906249,12.6075542 23.354687,11.8075459 C23.3171866,11.0091001 23.1906228,10.4640944 23.0062459,9.98721445 C22.8140564,9.49392806 22.5578037,9.0754862 22.1406119,8.65860686 C21.72342,8.24141501 21.3062282,7.98516235 20.812473,7.7937541 C20.3343431,7.60828342 19.7890249,7.48187585 18.9905791,7.44531297 C18.1905707,7.40890634 17.9358806,7.4 15.8983594,7.4 L15.9007031,7.4 Z M15.2278836,8.75157658 C15.4275732,8.75126408 15.650388,8.75157658 15.9007031,8.75157658 C17.903224,8.75157658 18.1405702,8.75876415 18.9313597,8.79470203 C19.6626173,8.82813988 20.0594965,8.95032865 20.3238742,9.05298597 C20.6738779,9.18892488 20.9234117,9.35142658 21.1857582,9.61392931 C21.4482609,9.87643205 21.6107626,10.1264347 21.747014,10.4764383 C21.8496714,10.7405035 21.9720164,11.1373827 22.005298,11.8686403 C22.0412358,12.6592735 22.0490484,12.896776 22.0490484,14.8983594 C22.0490484,16.8999427 22.0412358,17.1374452 22.005298,17.9280784 C21.9718601,18.659336 21.8496714,19.0562152 21.747014,19.3202804 C21.6110751,19.6702841 21.4482609,19.9195054 21.1857582,20.1818519 C20.9232555,20.4443546 20.6740341,20.6068563 20.3238742,20.7427952 C20.059809,20.8459213 19.6626173,20.9677976 18.9313597,21.0012354 C18.1407265,21.0371733 17.903224,21.0449859 15.9007031,21.0449859 C13.898026,21.0449859 13.6606798,21.0371733 12.8700466,21.0012354 C12.1387889,20.9674851 11.7419098,20.8452963 11.4773758,20.742639 C11.1273722,20.6067001 10.8773696,20.4441984 10.6148668,20.1816956 C10.3523641,19.9191929 10.1898624,19.6698153 10.053611,19.3196554 C9.95095366,19.0555902 9.82860863,18.658711 9.79532703,17.9274534 C9.75938916,17.1368202 9.75220159,16.8993177 9.75220159,14.8964843 C9.75220159,12.893651 9.75938916,12.6573985 9.79532703,11.8667653 C9.82876488,11.1355077 9.95095366,10.7386285 10.053611,10.4742508 C10.1895499,10.1242471 10.3523641,9.87424452 10.6148668,9.61174179 C10.8773696,9.34923905 11.1273722,9.18673736 11.4773758,9.05048594 C11.7417536,8.94735987 12.1387889,8.8254836 12.8700466,8.7918895 C13.5619288,8.76063917 13.8300566,8.75126408 15.2278836,8.74970156 L15.2278836,8.75157658 Z M19.9041823,9.99690205 C19.4073022,9.99690205 19.004173,10.3995625 19.004173,10.8965989 C19.004173,11.3934791 19.4073022,11.7966083 19.9041823,11.7966083 C20.4010625,11.7966083 20.8041917,11.3934791 20.8041917,10.8965989 C20.8041917,10.3997187 20.4010625,9.99658955 19.9041823,9.99658955 L19.9041823,9.99690205 Z M15.9007031,11.0484755 C13.7736497,11.0484755 12.0491005,12.7730247 12.0491005,14.9000781 C12.0491005,17.0271315 13.7736497,18.7508995 15.9007031,18.7508995 C18.0277565,18.7508995 19.7516807,17.0271315 19.7516807,14.9000781 C19.7516807,12.7730247 18.0276003,11.0484755 15.9005469,11.0484755 L15.9007031,11.0484755 Z M15.9007031,12.4000521 C17.2813425,12.4000521 18.4007292,13.5192825 18.4007292,14.9000781 C18.4007292,16.2807175 17.2813425,17.4001042 15.9007031,17.4001042 C14.5199075,17.4001042 13.4006771,16.2807175 13.4006771,14.9000781 C13.4006771,13.5192825 14.5199075,12.4000521 15.9007031,12.4000521 L15.9007031,12.4000521 Z"></path></svg>