<svg xmlns="http://www.w3.org/2000/svg" width="32" height="32" class="icon"><path fill="white" d="M0.620689655,15.2068966 C0.620689655,6.80835908 7.42904873,0 15.8275862,0 C24.2261237,0 31.0344828,6.80835908 31.0344828,15.2068966 C31.0344828,23.605434 24.2261237,30.4137931 15.8275862,30.4137931 C7.42904873,30.4137931 0.620689655,23.605434 0.620689655,15.2068966 Z M15.3721413,12.360356 L15.404052,12.8865489 L14.8722066,12.8221171 C12.936289,12.5751286 11.2450203,11.7375154 9.80903749,10.3307547 L9.10700144,9.63274368 L8.92617398,10.148198 C8.54324523,11.2972315 8.78789415,12.5106968 9.58566239,13.3268328 C10.0111388,13.7778553 9.91540659,13.8422871 9.18145981,13.5738213 C8.92617398,13.4879123 8.70279887,13.4234805 8.68152505,13.4556964 C8.60706668,13.5308668 8.86235252,14.5080822 9.06445381,14.894673 C9.34101346,15.4316045 9.90476968,15.9577974 10.5217104,16.2692178 L11.042919,16.5162063 L10.4259783,16.5269449 C9.83031131,16.5269449 9.80903749,16.5376835 9.87285895,16.7631948 C10.0855971,17.4612058 10.925913,18.2021714 11.8619611,18.5243303 L12.5214495,18.7498416 L11.9470564,19.0934778 C11.0961036,19.5874548 10.0962341,19.8666592 9.09636453,19.8881365 C8.61770359,19.8988751 8.22413793,19.9418296 8.22413793,19.9740455 C8.22413793,20.0814318 9.52184093,20.6827952 10.2770615,20.9190451 C12.5427233,21.6170561 15.2338615,21.3163744 17.2548744,20.1243863 C18.6908572,19.2760345 20.12684,17.5900694 20.7969653,15.9577974 C21.1586202,15.0879683 21.5202752,13.4986509 21.5202752,12.7362081 C21.5202752,12.2422311 21.5521859,12.1777993 22.1478529,11.5871746 C22.4988709,11.2435384 22.8286151,10.8676863 22.8924365,10.7603 C22.9988056,10.556266 22.9881687,10.556266 22.4456863,10.7388227 C21.541549,11.0609816 21.4139061,11.0180271 21.8606563,10.5347887 C22.1904005,10.1911525 22.5839662,9.56831189 22.5839662,9.38575516 C22.5839662,9.35353927 22.4244125,9.40723242 22.243585,9.5038801 C22.0521207,9.61126642 21.6266443,9.77234588 21.307537,9.86899357 L20.7331439,10.0515503 L20.2119353,9.69717547 C19.9247387,9.5038801 19.5205361,9.28910748 19.3077979,9.22467569 C18.7653155,9.07433486 17.9356366,9.09581212 17.4463387,9.26763022 C16.116725,9.75086862 15.2764091,10.9965498 15.3721413,12.360356 Z"></path></svg>