<svg class="logo-la-libre" xmlns="http://www.w3.org/2000/svg" viewBox="0 0 111.9 39.1"><title>La Libre</title> <path fill="white" d="M63.7 32.7V17.8h-4.5v.6l1.3.6v14.9H65v-.6zM24.2 27.5h-1c-.6 4.3-2.4 5-6.2 5h-3V8.8H8.7v.5l1.6.8V34h13.4l.5-6.4zM58 27.5h-1c-.5 4.3-2.4 5-6 5h-3.1V8.8h-5.3v.5l1.6.8V34h13.4l.4-6.4zM62 14.8c1.2 0 2-1.1 2-2.5 0-1.3-.8-2.4-2-2.4-1 0-1.9 1-1.9 2.4s.9 2.5 2 2.5M91.4 20.2v-2.4l-1.1-.2c-1.1 0-2.4 1-3.6 4.1v-3.9h-4.5v.6l1.3.6v14.9H88v-.6l-1.3-.6v-9.6c.5-.9 2-2.6 4.7-3M33 31.4a3 3 0 0 1-2 .7c-1.1 0-1.9-1-1.9-2.6s1.5-3 4-3.3v5.2zM28.9 23c-.7-2.6.8-3.8 2-3.8 1.1 0 2.3.8 2.3 2.8v3.3c-5 .7-7.4 2.1-7.4 5.2 0 1.7 1 3.6 3.1 3.6 2 0 3.2-.6 4.3-1.8V34h4.5v-.6l-1.3-.6v-10c0-3.4-2.3-4.8-4.4-4.8-2.8 0-5.9 1.6-5.9 4.6 0 .4.1 1 .4 1.3.8-.4 1.6-.6 2.4-.8M73.4 33c-1 0-2-.4-2.7-1V20.5c.8-.4 1.6-.6 2.4-.6 2.8 0 4.5 3.5 4.5 7.2 0 4.8-2.7 6-4.2 6m1.8-15.3c-1.2 0-2.4.2-4.5 1.7V6.9h-4.9v.5l1.7.8V33c1.4.7 4 1.2 5.5 1.2 5.8 0 7.7-5.8 7.7-9 0-4.8-2.2-7.3-5.5-7.3"></path> <path fill="white" d="M76.2 11.8H76v1.3h.2c.5 0 1-.2 1-.7 0-.5-.4-.6-.9-.6m0-1.5h-.3v1c.5 0 1-.1 1-.5s-.4-.5-.7-.5m1.1 2.9c-.3.2-.7.3-1.2.3h-.8V9.9h.9c.5 0 1.2 0 1.2.8 0 .3-.2.6-.6.8.5 0 .9.4.9.9 0 .3-.2.6-.4.8M79.1 13.5V9.9h2.1l-.2.5h-1.3v.9h1.2l-.2.5h-1V13h1.6v.5zM82.6 13.5V9.9h.6V13h1.5v.5zM87.2 13.6c-1 0-1.5-.8-1.5-1.8 0-1.1.5-2 1.8-2l1 .2-.2.5-.9-.2c-.8 0-1.1.6-1.1 1.5 0 .8.3 1.3 1 1.3l.7-.1v-1.2l.6-.1v1.5c-.3.2-.8.4-1.4.4M90.1 9.9h.6v3.6h-.6zM93.8 10.3c-.7 0-1 .6-1 1.4 0 .8.2 1.4 1 1.4.6 0 1-.5 1-1.4 0-.6-.2-1.4-1-1.4m1.3 3.8c-.3 0-.7-.2-1.1-.6H93.7c-1 0-1.6-.7-1.6-1.7 0-1.1.6-2 1.8-2 1 0 1.5.9 1.5 1.8 0 .8-.3 1.5-.9 1.8l.7.2h.3v.4h-.4M98.1 13.6c-1 0-1.3-.4-1.3-1.5V9.9h.6V12c0 .6 0 1.1.7 1.1.5 0 .8-.1.8-1V10h.6v2.2c0 1-.4 1.5-1.4 1.5M101 13.5V9.9h2.1l-.2.5h-1.3v.9h1.2l-.2.5h-1V13h1.5v.5zM97.5 19c2 0 2.3 2 2.3 5.4h-4.9c0-2.9.4-5.3 2.6-5.3m1.8 13.4c-2 0-4.3-2-4.4-7h8.3c0-6-2.9-7.7-5-7.7-3.4 0-6.7 2.6-6.7 8.5 0 4 2 7.8 6.6 7.8 2 0 3.7-.6 5-1.6l-.1-.9c-1.1.6-2.2 1-3.7 1"></path></svg>