<svg class="logo-rtbf" xmlns="http://www.w3.org/2000/svg" width="600" height="150" viewBox="0 0 600 150"><title>RTBF</title> <path fill="white" d="M270 125.8c-2.7-2.7-6-4-10-4H179.4h.2c-3.3 0-6-.9-8-2.8s-3-4.3-3-7.4V59.8H260c3 0 6.6-.4 9.6-3.4 2.7-2.6 4-5.9 4-9.7 0-3.8-1.3-7.2-4.1-10-2.8-2.7-6.1-4-10-4h-90.8V13.7A13.6 13.6 0 0 0 155 .2c-3.8 0-7.2 1.3-9.9 4.1a13.7 13.7 0 0 0-4.2 10v108.9c0 17.4 8.4 26 25.7 26l94-.2c3.6 0 6.8-1.3 9.5-3.9 2.8-2.6 4.1-6 4.1-9.7 0-3.7-1.3-6.8-4.2-9.6M346.6 32.7c-3.3 0-6.8.4-9.7 3.2-2.7 2.6-4 6-4 9.8 0 3.8 1.4 7.1 4.1 9.9 2.8 2.8 6.1 4.1 10 4.1H399.2c3.3 0 5.8 1 7.8 3 1.9 1.9 2.8 4.4 2.8 7.5l.2 41.5c0 3-1 5.5-3 7.3-2 2-4.7 2.9-8 2.9h-66.6c-3.4 0-6-1-8.2-2.9-2-1.8-3-4.2-3-7.3l-.1-98c0-3.6-1.3-6.8-4-9.5a13.7 13.7 0 0 0-19.7 0 13.6 13.6 0 0 0-4.2 10v108.6c0 17.5 9 26.3 26.6 26.3h91.4c17.5 0 26.4-8.7 26.4-26V58.3c0-17-8.4-25.3-25.8-25.5l-65.3-.1zM595.9 56.7c2.7-2.7 4.1-6 4.1-9.8 0-3.8-1.4-7.2-4.2-10a13.7 13.7 0 0 0-10-4.3H483.7c-17 .4-25.6 9-25.5 25.5l-.6 41.3v36.8c0 3.7 1.4 7 4.1 9.7 2.7 2.7 6 4 9.6 4 3.8 0 7.2-1.3 9.9-4 2.8-2.9 4.2-6.1 4.2-9.7v-24.3l.2-26.3v-19c0-4.5 2.2-6.8 6.4-6.8h94.4c3.3 0 6.7-.4 9.6-3.1M118.9 36.6c-2.6-2.6-5.9-3.9-10-3.9H30.8c-2-.1-3.2-.8-4.3-2.4-2.6-3.7-8-5-12.3-5-4.2 0-8 1.7-10.8 4.8C.6 32.9 0 36 0 39.7v16.4L0 58.3v77.2c0 3.7 1.4 7 4.2 9.7 2.8 2.8 6.1 4.2 10 4.2 3.7 0 7-1.3 9.6-4 2.7-2.6 4-5.9 4-9.7V70.4c0-3.2 1.1-6 3-7.7 2-2 4.6-2.9 8-2.9h70.6c4 0 7.1-1.1 9.6-3.5a13 13 0 0 0 4-9.8c0-3.8-1.3-7.1-4.1-9.9"></path> <path fill="white" d="M566.2 97.9c0-4.2-1.5-7.8-4.7-10.6a16 16 0 0 0-11-4h-26.7c-4.3 0-8 1.4-11.1 4a13.6 13.6 0 0 0-4.8 10.6c0 4.1 1.7 7.7 4.8 10.5 3 2.7 6.8 4 11 4h26.8c4.3 0 8-1.3 11-4 3.2-2.8 4.7-6.4 4.7-10.5z"></path></svg>