<svg class="logo-trends" xmlns="http://www.w3.org/2000/svg" viewBox="0 0 178 60"><title>Trends</title> <path fill="white" d="M128.7 16.1a3 3 0 0 1 3-3h.2a5.2 5.2 0 0 1 2.5.7l.2 2.7h-.2c-.7-2.7-2.4-2.9-2.8-2.9a1 1 0 0 0-1.1.9c0 .6.6 1.3 1.8 1.8 1.5.6 2.9 1.6 2.9 3.4a3.2 3.2 0 0 1-3 3.4h-.2a4.5 4.5 0 0 1-3-1 .5.5 0 0 1-.2-.3v-3h.2c.7 2.8 2.3 3.8 3 3.8a1 1 0 0 0 1.2-1c0-1.1-1.1-1.6-1.7-1.9-.9-.4-2.8-1-2.8-3.6zm-48 1.8a4.5 4.5 0 0 1 2.4-4.2 5.6 5.6 0 0 1 3.9-.5v-3a1.8 1.8 0 0 0-1.1-1.7v-.2a14.4 14.4 0 0 0 4.3-1.4l.1.1v13.8a.8.8 0 0 0 .8.8h.4a2.8 2.8 0 0 1 0-.5c-.4-2.4 4.1-4.2 5.2-4.3v-2.2c0-.7-.2-1.4-1-1.3a1.4 1.4 0 0 0-1.3 1.7c.2 1-.1 2.6-1.5 2.6s-1.5-1.2-1.2-2.2a3.5 3.5 0 0 1 2-2 7 7 0 0 1 3.4-.6c3 0 2.9 2.4 2.9 3.2v4.7a.7.7 0 0 0 1 .7l.2.2a3.6 3.6 0 0 1-2.6 1.2 2.3 2.3 0 0 1-1.6-1.3c-1 1-4.3 2.4-5.3.5a14.9 14.9 0 0 0-4.6 1H87v-1.5a3.4 3.4 0 0 1-2.7 1.3c-1.6 0-3.5-1.1-3.5-4.9zm14.9 3.5c1.3 0 1-1.3 1-2v-2a2.9 2.9 0 0 0-2.2 2.3c0 .2 0 1.7 1.2 1.7zm-11.7-4c0 2 .5 4.5 2.1 4.2 1-.2 1-1.5 1-2.4v-3.4c0-.7-.2-2.3-1.5-2.2s-1.6 1.8-1.6 3.8zm-21.9.5c0-2.7 2-5 4.3-5 2.2 0 3.9 2 4 4.3H65c0 1.7 1.2 3.5 2.9 3.5a2.3 2.3 0 0 0 2.3-1.1h.2a4.4 4.4 0 0 1-4 3.2c-2.4 0-4.3-2.2-4.3-5zm2.9-1.1h2.8c0-1 0-3.5-1.4-3.5s-1.4 2-1.4 3.4zm50.8 6a4.4 4.4 0 0 0 4-3l-.2-.2a2.4 2.4 0 0 1-2.4 1.2c-1.7 0-3-1.7-3-3.7 0-3.4 1.5-3.7 2-3.7a1 1 0 0 1 .9.5c.2.5.2.8 0 2a1.4 1.4 0 0 0 .9 1.7 1.4 1.4 0 0 0 .5 0 1.5 1.5 0 0 0 1.3-1.7 2.8 2.8 0 0 0-1-2.2 4.2 4.2 0 0 0-2.9-.8c-2.3 0-4.4 2.3-4.4 5s2 5 4.4 5zm4.3-5c0-2.7 1.9-5 4.3-5 2.2 0 3.8 2 4 4.4h-5.5c0 1.7 1.2 3.5 2.9 3.5a2.3 2.3 0 0 0 2.3-1.1h.2a4.4 4.4 0 0 1-4 3.2c-2.3 0-4.3-2.2-4.3-5zm2.8-1h2.9c0-1 0-3.5-1.4-3.5s-1.5 2-1.4 3.4zm-51.7-.6v5.2a.8.8 0 0 1-.8.8h-.2v.4h5.3v-.4h-.1a.8.8 0 0 1-.8-.9V16a1.3 1.3 0 0 1 .8-1.6h.5c1.2 0 1 1.2 1 1.6v5.4a.8.8 0 0 1-.8.8H76v.4H81v-.4H81a.8.8 0 0 1-.8-.9v-5c0-2.4-1.3-3.3-2.7-3.4a4.3 4.3 0 0 0-3 1.3V13l-.1-.1a14.4 14.4 0 0 1-4.4 1.4v.1a1.8 1.8 0 0 1 1 1.7zm30.7 0v5.2a.8.8 0 0 1-.8.8h-.1v.4h5.3v-.4h-.2a.8.8 0 0 1-.8-.9V16a1.3 1.3 0 0 1 .9-1.6h.4c1.2 0 1 1.2 1 1.6v5.4a.8.8 0 0 1-.8.8h-.1v.4h5.2v-.4h-.2a.8.8 0 0 1-.8-.9v-5c0-2.4-1.2-3.3-2.7-3.4a4.3 4.3 0 0 0-3 1.3v-1.3a14.4 14.4 0 0 1-4.4 1.4v.1a1.8 1.8 0 0 1 1.1 1.7zm-45 3.8a2.7 2.7 0 0 0 2.4 2.9h.2c2 0 2.8-.7 3.3-1.6l-.1-.2a1.4 1.4 0 0 1-1.7.7 1.3 1.3 0 0 1-.7-1.4v-6.6h2.1V13h-2v-2.7h-.1a17.7 17.7 0 0 1-4 3.4v.2h.6V20zM178 48.6c0 5.6-3.9 11.5-10.8 11.4-6 0-9-2-10.8-3.5a50.7 50.7 0 0 0-14.3 3.3l-.3-.3v-4.8a11.8 11.8 0 0 1-9.4 4.3c-5.3 0-12-3.8-12-16.1 0-7.5 3.6-11.8 8-14a20 20 0 0 1 13.3-1.8v-10a6 6 0 0 0-3.8-5.6v-.6A51 51 0 0 0 153 6.3l.3.4v45.5a2.8 2.8 0 0 0 2.7 2.9v-9.7h.8c2.3 9.6 8 12.7 10.4 13 1.9 0 4.1-.8 4.2-3.5.2-3.8-4-5.4-6-6.4-3.1-1.4-9.7-3.3-9.6-11.7s8.1-9.9 11-9.9a18.3 18.3 0 0 1 8.7 2.2l.8 9h-.8c-2.3-9-8.2-9.6-9.6-9.6-1 0-3.7.3-3.8 3 0 2 2 4.2 6.2 5.9 5 2 9.7 5.2 9.8 11.2zm-35.2-1.8V35.7c0-2.1-.3-7.6-5.1-7.4s-5.5 6.1-5.5 12.6 1.8 15 7.5 13.9c3.3-.8 3.1-4.8 3.1-8zM86 48.7A15 15 0 0 1 72.2 59c-8.3 0-15-7.4-15-16.5a18 18 0 0 1 1-5.7 3.4 3.4 0 0 1-1.7.7 3.2 3.2 0 0 1-2.7-1.5c-.4-.5-1.2-2-2.6-1.8-2.1 0-2.3 3-2.3 4.7v15.1a2.8 2.8 0 0 0 2.8 2.9h.5v1.2H12.1V57h.7a5.3 5.3 0 0 0 5.2-5.3V3.5C14.9 3.2 6.9 4.8.9 17.3H0L3.2 0h43.3l3.2 17.3H49C43 4.7 35 3.3 32 3.5v47.9c0 1.4 0 4.5 2.7 5.3 2.5-.8 2.7-3.7 2.7-5V36.9a6 6 0 0 0-4-5.6v-.6A51.2 51.2 0 0 0 48.6 26l.3.4v5.4a.5.5 0 0 0 .3 0c1.5-3.2 4.3-5.3 7-5.3s4.2 2.5 4.3 5a8.4 8.4 0 0 1 0 1A14.4 14.4 0 0 1 72 26.1c7.5 0 13.3 6.3 14 14.3H67.3c.2 5.5 4 11.6 10 11.6s7.2-2.8 8-3.8zm-18.7-9.8H77c.1-3.4 0-11.5-4.8-11.4-4.4.1-5 6.8-5 11.4zM122 57a2.8 2.8 0 0 1-2.8-2.8v-17c0-7.7-4.2-10.8-9.3-10.9a15 15 0 0 0-10.2 4.2h-.1v-4l-.4-.4a51.2 51.2 0 0 1-15 4.6v.6a6 6 0 0 1 3.8 5.6v17.2a2.8 2.8 0 0 1-2.8 2.9h-.6v1.2h18.3V57h-.6a2.8 2.8 0 0 1-2.7-2.8V36.5c0-1.3-.5-5 3.7-5.4h.8c4.2 0 3.7 4 3.7 5.4V54a2.8 2.8 0 0 1-2.7 2.9h-.6v1.2h18V57h-.5z"></path></svg>